<svg xmlns="http://www.w3.org/2000/svg" width="30.001" height="30" viewBox="0 0 30.001 30">
  <path id="Path_2" data-name="Path 2" d="M13.492,1.352a2.861,2.861,0,0,1,3.863-.166l.183.167L20.256,4.07H24.1a2.861,2.861,0,0,1,2.853,2.647l.009.215v3.843l2.718,2.718a2.862,2.862,0,0,1,.166,3.864l-.167.182-2.718,2.718V24.1a2.861,2.861,0,0,1-2.647,2.854l-.213.007H20.257l-2.718,2.718a2.861,2.861,0,0,1-3.864.166l-.182-.166L10.775,26.96H6.931a2.861,2.861,0,0,1-2.854-2.647L4.07,24.1V20.256L1.352,17.538a2.861,2.861,0,0,1-.166-3.864l.166-.182L4.07,10.774V6.931A2.861,2.861,0,0,1,6.717,4.079l.215-.009h3.843ZM19.92,11.2,13.848,17.27l-2.529-2.529A1.431,1.431,0,0,0,9.3,16.765L12.735,20.2a1.574,1.574,0,0,0,2.226,0l6.981-6.983A1.431,1.431,0,0,0,19.92,11.2Z" transform="translate(-0.515 -0.515)" fill="#fff" fill-rule="evenodd"/>
</svg>
