<svg xmlns="http://www.w3.org/2000/svg" width="31.579" height="30" viewBox="0 0 31.579 30">
  <path id="Path_3" data-name="Path 3" d="M3.158,30a3.04,3.04,0,0,1-2.229-.927A3.047,3.047,0,0,1,0,26.842V9.474A3.037,3.037,0,0,1,.928,7.244a3.049,3.049,0,0,1,2.229-.928H9.474V3.158A3.037,3.037,0,0,1,10.4.928,3.048,3.048,0,0,1,12.632,0h6.316a3.042,3.042,0,0,1,2.231.928,3.035,3.035,0,0,1,.927,2.229V6.316h6.316a3.167,3.167,0,0,1,3.158,3.158V26.842A3.164,3.164,0,0,1,28.421,30ZM12.632,6.316h6.316V3.158H12.632Z" fill="#fff"/>
</svg>
